<?xml version="1.0" encoding="UTF-8"?> <!-- Generator: Adobe Illustrator 16.0.3, SVG Export Plug-In . SVG Version: 6.00 Build 0) --> <svg xmlns="http://www.w3.org/2000/svg" xmlns:xlink="http://www.w3.org/1999/xlink" version="1.1" id="Vrstva_1" x="0px" y="0px" width="592.667px" height="289.333px" viewBox="0 0 592.667 289.333" xml:space="preserve"> <polygon fill="#06A2DC" points="151.977,121.056 85.589,42.359 27.03,111.776 11.373,98.568 85.589,10.591 151.977,89.289 218.365,10.591 292.582,98.568 276.924,111.776 218.365,42.359 "></polygon> <polygon fill="#EF7F3C" points="151.591,277.848 60.331,188.731 74.643,174.075 151.395,249.026 258.282,141.765 272.792,156.224 "></polygon> <path fill="#EF7F3C" d="M549.932,276.949h11.429v-44.091h-11.429V276.949z M555.6,225.479c4.771,0,7.47-2.609,7.47-7.288 c0-4.499-2.699-7.019-7.47-7.019c-4.857,0-7.468,2.52-7.468,7.019C548.132,222.87,550.831,225.479,555.6,225.479 M536.345,232.138 c-8.458,0-11.696,6.568-12.866,13.227v-12.507h-11.428v44.091h11.428v-18.266c0-11.158,5.038-16.018,12.237-16.018 c2.879,0,4.319,0.271,5.938,0.9v-10.798C540.035,232.138,537.965,232.138,536.345,232.138 M529.957,226.559l11.067-15.566h-7.108 l-8.908,7.108l-8.998-7.108h-7.108l11.067,15.566H529.957z M475.878,267.5c-8.098,0-11.967-4.049-11.967-12.508 c0-8.638,3.869-12.687,11.967-12.687c8.369,0,12.238,4.049,12.238,12.687C488.116,263.452,484.247,267.5,475.878,267.5 M487.756,232.858v9.897c-2.79-6.929-8.277-10.798-15.837-10.798c-12.327,0-19.526,9.179-19.526,23.035 c0,13.677,7.47,22.855,20.066,22.855c7.288,0,12.597-3.779,15.297-10.527v9.628h11.427v-44.091H487.756z M436.106,276.949h13.677 l-17.366-26.005l16.827-18.086h-14.307l-10.979,13.677l-6.209,9.898v-42.472h-11.427v62.987h11.427v-10.348l7.559-8.099 L436.106,276.949z M375.46,240.596c6.479,0,9.538,2.609,9.718,10.077h-20.065C365.922,243.566,369.072,240.596,375.46,240.596 M396.516,254.273c0-13.587-8.548-22.315-21.146-22.315c-13.047,0-22.135,9.358-22.135,23.215c0,13.678,8.998,22.676,22.495,22.676 c9.897,0,16.826-3.869,19.796-11.518l-9.898-3.599c-2.159,4.679-4.409,6.208-9.628,6.208c-6.928,0-10.168-3.06-10.888-10.438h31.313 C396.516,256.703,396.516,255.712,396.516,254.273 M392.377,210.993H376.09l-5.489,15.566h6.3L392.377,210.993z M332.18,276.949 h11.429v-62.987H332.18V276.949z"></path> <path fill="#06A2DC" d="M557.94,197.553h11.428v-44.091H557.94V197.553z M582.235,131.598h-16.286l-5.489,15.565h6.298 L582.235,131.598z M521.679,188.106c-8.099,0-11.968-4.049-11.968-12.508c0-8.639,3.869-12.688,11.968-12.688 c8.368,0,12.237,4.049,12.237,12.688C533.916,184.057,530.047,188.106,521.679,188.106 M533.556,134.567v28.794 c-2.788-6.929-8.277-10.798-15.836-10.798c-12.327,0-19.525,9.178-19.525,23.035c0,13.677,7.468,22.855,20.065,22.855 c7.288,0,12.598-3.78,15.296-10.528v9.628h11.429v-62.986H533.556z M465.261,188.106c-8.099,0-11.968-4.049-11.968-12.508 c0-8.639,3.869-12.688,11.968-12.688c8.368,0,12.237,4.049,12.237,12.688C477.498,184.057,473.629,188.106,465.261,188.106 M477.138,153.462v9.898c-2.789-6.929-8.277-10.798-15.836-10.798c-12.328,0-19.525,9.178-19.525,23.035 c0,13.677,7.468,22.855,20.064,22.855c7.289,0,12.599-3.78,15.297-10.528v9.628h11.429v-44.091H477.138z M420.721,197.553h11.429 v-62.986h-11.429V197.553z M386.079,134.567l-11.967,37.162l-4.141,15.116l-4.139-15.116l-11.967-37.162H333.35v62.986h11.698 v-54.979l2.97,12.508l14.576,42.471h14.758l14.576-42.471l2.97-12.777v55.248h11.697v-62.986H386.079z"></path> </svg> 