<?xml version="1.0" encoding="utf-8"?>
<!-- Generator: Adobe Illustrator 26.0.3, SVG Export Plug-In . SVG Version: 6.00 Build 0)  -->
<svg version="1.1" id="Layer_1" xmlns="http://www.w3.org/2000/svg" xmlns:xlink="http://www.w3.org/1999/xlink" x="0px" y="0px"
	 viewBox="0 0 595 120.9" style="enable-background:new 0 0 595 120.9;" xml:space="preserve">
<style type="text/css">
	.st0{fill:#87CCE7;}
	.st1{enable-background:new    ;}
	.st2{fill:#231F20;}
	.st3{fill:#FFFFFF;}
	.st4{fill:#362F2D;}
	.st5{fill:#72C2E4;}
	.st6{fill:#221A15;}
	.st7{fill:#231B16;}
	.st8{fill:#FEFEFE;}
	.st9{fill:#D2D4D6;}
	.st10{fill:#D1D4D6;}
	.st11{fill:#778EB3;}
	.st12{fill:#87CCE8;}
	.st13{fill:#236BAC;}
	.st14{fill:#ACADB1;}
	.st15{fill:#37302E;}
</style>
<circle class="st0" cx="60.5" cy="60.5" r="60.5"/>
<g class="st1">
	<path class="st2" d="M147.1,46.9h6.3v27h9.2v6h-15.5V46.9z"/>
</g>
<g class="st1">
	<path class="st2" d="M190.2,69.5h-19.7c0.3,1.7,1,3.1,2.3,4.1c1.2,1,2.8,1.5,4.7,1.5c2.3,0,4.3-0.8,5.9-2.4l5.2,2.4
		c-1.3,1.8-2.8,3.2-4.6,4.1c-1.8,0.9-3.9,1.3-6.4,1.3c-3.8,0-7-1.2-9.4-3.6c-2.4-2.4-3.6-5.4-3.6-9.1c0-3.7,1.2-6.8,3.6-9.3
		c2.4-2.5,5.4-3.7,9-3.7c3.8,0,7,1.2,9.4,3.7c2.4,2.5,3.6,5.7,3.6,9.8L190.2,69.5z M184.1,64.6c-0.4-1.4-1.2-2.5-2.4-3.3
		c-1.2-0.9-2.6-1.3-4.2-1.3c-1.7,0-3.2,0.5-4.5,1.4c-0.8,0.6-1.6,1.7-2.2,3.2H184.1z M178.4,42.2h7.3l-8.2,8.8H173L178.4,42.2z"/>
</g>
<g class="st1">
	<path class="st2" d="M194.3,46h6.1v19.5l9-10.1h7.7l-10.5,11.7l11.8,12.7h-7.6l-10.4-11.3v11.3h-6.1V46z"/>
</g>
<g class="st1">
	<path class="st2" d="M236.9,55.5h6.1v24.4h-6.1v-2.6c-1.2,1.1-2.4,2-3.6,2.5c-1.2,0.5-2.5,0.8-3.9,0.8c-3.2,0-5.9-1.2-8.2-3.7
		c-2.3-2.4-3.5-5.5-3.5-9.1c0-3.8,1.1-6.9,3.3-9.3s4.9-3.6,8.1-3.6c1.5,0,2.8,0.3,4.1,0.8s2.5,1.4,3.6,2.5V55.5z M230.5,60.5
		c-1.9,0-3.5,0.7-4.7,2c-1.3,1.3-1.9,3.1-1.9,5.2c0,2.1,0.6,3.8,1.9,5.2c1.3,1.4,2.8,2,4.7,2c1.9,0,3.5-0.7,4.8-2
		c1.3-1.3,1.9-3.1,1.9-5.3c0-2.1-0.6-3.8-1.9-5.2C234,61.2,232.4,60.5,230.5,60.5z"/>
</g>
<g class="st1">
	<path class="st2" d="M244.6,44.6h6.7l2.5,3l2.4-3h6.7l-6.7,6.4h-4.9L244.6,44.6z M248,55.5h5.3v3.1c0.6-1.2,1.3-2.1,2.3-2.8
		s2-0.9,3.1-0.9c0.8,0,1.6,0.2,2.5,0.6l-1.9,5.3c-0.7-0.4-1.3-0.5-1.8-0.5c-0.9,0-1.7,0.6-2.4,1.8c-0.7,1.2-1,3.5-1,6.9l0,1.2v9.9
		H248V55.5z"/>
</g>
<g class="st1">
	<path class="st2" d="M266.8,45.4c1.1,0,2,0.4,2.8,1.2c0.8,0.8,1.2,1.7,1.2,2.8c0,1.1-0.4,2-1.1,2.8c-0.8,0.8-1.7,1.2-2.7,1.2
		c-1.1,0-2-0.4-2.8-1.2c-0.8-0.8-1.2-1.7-1.2-2.9c0-1.1,0.4-2,1.1-2.8C264.8,45.8,265.7,45.4,266.8,45.4z M263.7,55.5h6.1v24.4h-6.1
		V55.5z"/>
</g>
<g class="st1">
	<path class="st2" d="M287.2,55.5h6.1v25.2c0,2.3-0.2,4.1-0.7,5.2c-0.5,1.1-1.2,2-2.2,2.6s-2.2,0.9-3.6,0.9c-1.2,0-2.8-0.3-4.6-0.9
		v-4.8c1,0.5,1.8,0.7,2.5,0.7c0.8,0,1.4-0.2,1.8-0.7c0.4-0.5,0.6-1.3,0.6-2.6V55.5z M290.3,45.4c1.1,0,2,0.4,2.8,1.2
		c0.8,0.8,1.2,1.7,1.2,2.8c0,1.1-0.4,2-1.1,2.8s-1.7,1.2-2.7,1.2c-1.1,0-2-0.4-2.8-1.2c-0.8-0.8-1.2-1.7-1.2-2.9
		c0-1.1,0.4-2,1.1-2.8C288.3,45.8,289.2,45.4,290.3,45.4z"/>
</g>
<g class="st1">
	<path class="st2" d="M313.7,58.9l-3.8,3.8c-1.5-1.5-2.9-2.3-4.2-2.3c-0.7,0-1.2,0.1-1.6,0.4c-0.4,0.3-0.6,0.7-0.6,1.1
		c0,0.3,0.1,0.6,0.4,0.9c0.2,0.3,0.9,0.7,1.8,1.1l2.2,1.1c2.4,1.2,4,2.4,4.9,3.6c0.9,1.2,1.3,2.6,1.3,4.3c0,2.2-0.8,4-2.4,5.4
		s-3.7,2.2-6.4,2.2c-3.6,0-6.4-1.4-8.5-4.2l3.8-4.1c0.7,0.8,1.6,1.5,2.5,2c1,0.5,1.8,0.8,2.6,0.8c0.8,0,1.5-0.2,2-0.6
		s0.7-0.8,0.7-1.3c0-0.9-0.9-1.9-2.7-2.8l-2.1-1c-4-2-5.9-4.5-5.9-7.5c0-1.9,0.7-3.6,2.2-5c1.5-1.4,3.4-2.1,5.7-2.1
		c1.6,0,3.1,0.3,4.5,1C311.5,56.6,312.7,57.6,313.7,58.9z"/>
</g>
<g class="st1">
	<path class="st2" d="M329.4,54.8c2.3,0,4.5,0.6,6.5,1.7s3.6,2.7,4.8,4.7c1.1,2,1.7,4.1,1.7,6.4c0,2.3-0.6,4.5-1.7,6.5
		s-2.7,3.6-4.7,4.7c-2,1.1-4.2,1.7-6.5,1.7c-3.5,0-6.5-1.2-9-3.7c-2.5-2.5-3.7-5.5-3.7-9.1c0-3.8,1.4-7,4.2-9.5
		C323.3,55.9,326.2,54.8,329.4,54.8z M329.5,60.6c-1.9,0-3.5,0.7-4.8,2c-1.3,1.3-1.9,3-1.9,5.1c0,2.1,0.6,3.8,1.9,5.2
		c1.3,1.3,2.8,2,4.8,2s3.5-0.7,4.8-2c1.3-1.3,1.9-3,1.9-5.1s-0.6-3.8-1.9-5.1C333,61.3,331.4,60.6,329.5,60.6z"/>
</g>
<g class="st1">
	<path class="st2" d="M346.2,55.5h6.2v11.8c0,2.3,0.2,3.9,0.5,4.8c0.3,0.9,0.8,1.6,1.5,2.1c0.7,0.5,1.6,0.7,2.6,0.7
		c1,0,1.9-0.2,2.6-0.7c0.7-0.5,1.2-1.2,1.6-2.1c0.3-0.7,0.4-2.2,0.4-4.5v-12h6.1v10.4c0,4.3-0.3,7.2-1,8.8c-0.8,1.9-2,3.4-3.6,4.4
		c-1.6,1-3.6,1.5-6.1,1.5c-2.7,0-4.8-0.6-6.5-1.8c-1.7-1.2-2.8-2.9-3.5-5c-0.5-1.5-0.7-4.2-0.7-8.1V55.5z"/>
</g>
<g class="st1">
	<path class="st2" d="M385.6,55.5h6.1v25.2c0,2.3-0.2,4.1-0.7,5.2c-0.5,1.1-1.2,2-2.2,2.6s-2.2,0.9-3.6,0.9c-1.2,0-2.8-0.3-4.6-0.9
		v-4.8c1,0.5,1.8,0.7,2.5,0.7c0.8,0,1.4-0.2,1.8-0.7c0.4-0.5,0.6-1.3,0.6-2.6V55.5z M388.6,45.4c1.1,0,2,0.4,2.8,1.2
		s1.2,1.7,1.2,2.8c0,1.1-0.4,2-1.1,2.8s-1.7,1.2-2.7,1.2c-1.1,0-2-0.4-2.8-1.2c-0.8-0.8-1.2-1.7-1.2-2.9c0-1.1,0.4-2,1.1-2.8
		S387.6,45.4,388.6,45.4z"/>
</g>
<g class="st1">
	<path class="st2" d="M421.4,69.5h-19.7c0.3,1.7,1,3.1,2.3,4.1c1.2,1,2.8,1.5,4.7,1.5c2.3,0,4.3-0.8,5.9-2.4l5.2,2.4
		c-1.3,1.8-2.8,3.2-4.6,4.1c-1.8,0.9-3.9,1.3-6.4,1.3c-3.8,0-7-1.2-9.4-3.6c-2.4-2.4-3.6-5.4-3.6-9.1c0-3.7,1.2-6.8,3.6-9.3
		c2.4-2.5,5.4-3.7,9-3.7c3.8,0,7,1.2,9.4,3.7c2.4,2.5,3.6,5.7,3.6,9.8L421.4,69.5z M415.2,64.6c-0.4-1.4-1.2-2.5-2.4-3.3
		c-1.2-0.9-2.6-1.3-4.2-1.3c-1.7,0-3.2,0.5-4.5,1.4c-0.8,0.6-1.6,1.7-2.2,3.2H415.2z"/>
</g>
<g class="st1">
	<path class="st2" d="M425.4,55.5h6.1V58c1.4-1.2,2.7-2,3.8-2.4s2.3-0.7,3.5-0.7c2.4,0,4.5,0.8,6.2,2.5c1.4,1.4,2.1,3.6,2.1,6.4
		v16.1H441V69.2c0-2.9-0.1-4.9-0.4-5.8c-0.3-1-0.7-1.7-1.4-2.2c-0.7-0.5-1.5-0.8-2.4-0.8c-1.2,0-2.3,0.4-3.2,1.2
		c-0.9,0.8-1.5,2-1.8,3.4c-0.2,0.8-0.3,2.4-0.3,5v9.8h-6.1V55.5z"/>
</g>
<g class="st1">
	<path class="st2" d="M463.7,54.8c2.3,0,4.5,0.6,6.5,1.7c2,1.2,3.6,2.7,4.8,4.7c1.1,2,1.7,4.1,1.7,6.4c0,2.3-0.6,4.5-1.7,6.5
		s-2.7,3.6-4.7,4.7c-2,1.1-4.2,1.7-6.5,1.7c-3.5,0-6.5-1.2-9-3.7c-2.5-2.5-3.7-5.5-3.7-9.1c0-3.8,1.4-7,4.2-9.5
		C457.7,55.9,460.5,54.8,463.7,54.8z M463.8,60.6c-1.9,0-3.5,0.7-4.8,2c-1.3,1.3-1.9,3-1.9,5.1c0,2.1,0.6,3.8,1.9,5.2
		c1.3,1.3,2.8,2,4.8,2s3.5-0.7,4.8-2c1.3-1.3,1.9-3,1.9-5.1s-0.6-3.8-1.9-5.1C467.4,61.3,465.8,60.6,463.8,60.6z"/>
</g>
<g class="st1">
	<path class="st2" d="M480.8,55.5h6.1v2.8c1-1.2,2.2-2,3.5-2.6s2.7-0.9,4.2-0.9c1.5,0,2.9,0.4,4.1,1.1c1.2,0.7,2.2,1.8,3,3.3
		c1-1.4,2.2-2.5,3.6-3.3c1.4-0.7,3-1.1,4.6-1.1c1.7,0,3.3,0.4,4.6,1.2s2.3,1.9,2.8,3.2s0.9,3.4,0.9,6.4v14.3h-6.2V67.5
		c0-2.8-0.3-4.6-1-5.6c-0.7-1-1.7-1.5-3.1-1.5c-1,0-2,0.3-2.8,0.9c-0.8,0.6-1.4,1.4-1.9,2.5c-0.4,1.1-0.6,2.8-0.6,5.1v11h-6.2V68.1
		c0-2.2-0.2-3.8-0.5-4.8c-0.3-1-0.8-1.7-1.5-2.2c-0.6-0.5-1.4-0.7-2.3-0.7c-1,0-1.9,0.3-2.8,0.9c-0.8,0.6-1.5,1.5-1.9,2.5
		s-0.6,2.8-0.6,5.2v10.9h-6.1V55.5z"/>
</g>
<g class="st1">
	<path class="st2" d="M535.4,46h6.1v33.9h-6.1V46z"/>
</g>
<g class="st1">
	<path class="st2" d="M549.5,45.4c1.1,0,2,0.4,2.8,1.2s1.2,1.7,1.2,2.8c0,1.1-0.4,2-1.1,2.8c-0.8,0.8-1.7,1.2-2.7,1.2
		c-1.1,0-2-0.4-2.8-1.2c-0.8-0.8-1.2-1.7-1.2-2.9c0-1.1,0.4-2,1.1-2.8S548.4,45.4,549.5,45.4z M546.4,55.5h6.1v24.4h-6.1V55.5z"/>
</g>
<g class="st1">
	<path class="st2" d="M575.5,46h6.1v33.9h-6.1v-2.6c-1.2,1.1-2.4,2-3.6,2.5c-1.2,0.5-2.5,0.8-3.9,0.8c-3.2,0-5.9-1.2-8.2-3.7
		c-2.3-2.4-3.5-5.5-3.5-9.1c0-3.8,1.1-6.9,3.3-9.3s4.9-3.6,8.1-3.6c1.5,0,2.8,0.3,4.1,0.8s2.5,1.4,3.6,2.5V46z M569.1,60.5
		c-1.9,0-3.5,0.7-4.7,2c-1.3,1.3-1.9,3.1-1.9,5.2c0,2.1,0.6,3.8,1.9,5.2c1.3,1.4,2.8,2,4.7,2c1.9,0,3.5-0.7,4.8-2
		c1.3-1.3,1.9-3.1,1.9-5.3c0-2.1-0.6-3.8-1.9-5.2C572.6,61.2,571,60.5,569.1,60.5z"/>
</g>
<g class="st1">
	<path class="st2" d="M590,45.4c1.1,0,2,0.4,2.8,1.2s1.2,1.7,1.2,2.8c0,1.1-0.4,2-1.1,2.8c-0.8,0.8-1.7,1.2-2.7,1.2
		c-1.1,0-2-0.4-2.8-1.2c-0.8-0.8-1.2-1.7-1.2-2.9c0-1.1,0.4-2,1.1-2.8C588,45.8,588.9,45.4,590,45.4z M586.9,55.5h6.1v24.4h-6.1
		V55.5z"/>
</g>
<path class="st3" d="M49.2,53.9c-0.1-0.2-0.2-0.3-0.4-0.4c-0.7-0.7-1.5-1.4-2.2-2.2c-0.4-0.4-0.7-0.8-1-1.2
	c-0.1-0.1-0.2-0.3-0.2-0.4c0-0.3,0.3-0.4,0.5-0.6c2.5-1.9,4.9-3.7,7.2-5.7c0.9-0.8,1.8-1.6,2.7-2.4c1.7-1.8,2-4.5,0.7-6.7
	c-1.3-2.1-3.9-3-6.2-2.2c-1.2,0.4-2.4,1-3.5,1.6c-3.8,2-7.5,4.2-11.1,6.5c-0.4,0.3-0.8,0.5-1.2,0.8c-0.2,0.2-0.5,0.4-0.8,0.3
	c-0.1-0.1-0.2-0.2-0.1-0.3c0.3-2.1,0.8-4.2,1.3-6.3c0.5-1.6,1-3.2,1.7-4.8c0.7-1.6,1.6-3.2,2.6-4.6c0.3-0.4,0.6-0.9,0.8-1.4
	c0.3-0.7,0.3-1.4,0.1-2.1c-0.1-0.4-0.2-0.7-0.3-1c-0.7-1.9-1.1-3.9-1.5-5.8c-0.1-0.7-0.2-1.4-0.3-2.1c-0.1-0.6,0-1.1,0.1-1.7
	c0.2-0.8,0.9-1.4,1.7-1.6c0.6-0.1,1.2-0.1,1.8,0c1.1,0.1,2.3,0.4,3.3,0.9c1,0.4,2,0.9,3,1.5c1.3,0.8,2.5,1.7,3.6,2.6
	c0.4,0.3,0.8,0.6,1.3,0.8c0.7,0.3,1.4,0.3,2.1,0.2c1.2-0.2,2.3-0.3,3.5-0.4c1.1-0.1,2.2-0.1,3.3,0c0.9,0,1.8,0.1,2.7,0.2
	c0.7,0.1,1.5,0.2,2.2,0.3c1.1,0.1,2.2-0.2,3-1c1.7-1.5,3.6-2.8,5.7-3.8c1.4-0.7,2.8-1.1,4.3-1.3c0.4-0.1,0.8-0.1,1.2-0.1
	c0.3,0,0.7,0.1,1,0.2c0.9,0.3,1.6,1.2,1.6,2.2c0,0.6,0,1.3-0.1,1.9c-0.2,1.2-0.4,2.3-0.6,3.5c-0.3,1.2-0.6,2.5-1,3.6
	c-0.1,0.3-0.2,0.5-0.3,0.8c-0.3,0.9-0.2,1.9,0.3,2.7c0.2,0.3,0.3,0.6,0.5,0.8c0.8,1.1,1.5,2.3,2.1,3.5c1,2.1,1.8,4.3,2.4,6.5
	c0.3,1,0.5,2,0.7,3.1c0.2,0.8,0.3,1.7,0.4,2.6c0,0.2,0.1,0.4-0.1,0.5c-0.4,0.1-0.6-0.2-0.9-0.4c-4.6-3.1-9.3-5.8-14.2-8.3
	c-1.3-0.7-2.9-1-4.4-0.6c-2.9,0.7-4.6,3.7-3.9,6.5c0.2,0.6,0.4,1.2,0.8,1.7c1.1,1.3,2.3,2.5,3.6,3.5c2.2,1.8,4.4,3.6,6.7,5.3
	c0.2,0.2,0.5,0.3,0.6,0.7c0,0.1,0,0.2-0.1,0.3l-0.9,1c-0.7,0.8-1.5,1.6-2.3,2.4c-0.1,0.1-0.1,0.1-0.2,0.2c-0.1,0.3-0.4,0.5-0.6,0.7
	c-2,1.8-4.2,3.3-6.6,4.5C64,59.6,62.4,60,60.7,60c-1.3-0.1-2.5-0.4-3.7-0.8c-2.7-1.2-5.2-2.8-7.4-4.7C49.4,54.3,49.3,54.1,49.2,53.9
	z"/>
<path class="st3" d="M74.3,88.6l-0.6,1.2c-1.6,3.2-3.2,6.3-5,9.3c-1.1,1.8-2.2,3.6-3.2,5.4c-0.2,0.3-0.5,0.7-0.7,1
	c0.1,0.2-0.1,0.2-0.1,0.3c-0.8,1.2-1.6,2.4-2.5,3.6s-1.6,2.3-2.5,3.4c-0.4,0.5-0.9,1-1.4,1.5c-0.1,0.1-0.3,0.2-0.4,0.2
	c-0.1,0-0.2-0.1-0.2-0.2c0-0.1,0.1-0.2,0.1-0.4c1-2.4,2-4.7,3-7.2c0.1-0.2,0-0.5-0.2-0.7c-0.9-1-1.7-2-2.6-3c-1.4-1.7-2.7-3.3-4-5.1
	s-2.6-3.6-3.8-5.4c-1.3-2-2.5-4-3.7-6.1s-2.2-4.1-3.2-6.2l-0.1-0.2c-0.1-0.2-0.1-0.6,0-0.8l1.3-2.5l1.3-2.4c0-0.1,0.1-0.2,0.1-0.2
	c-0.2-0.1-0.5-0.2-0.7-0.2c-1.1,0-2.2-0.1-3.3-0.3h-0.5c-0.2-0.1-0.4-0.3-0.5-0.5c-0.3-0.7-0.8-1.3-1.5-1.6c-0.4-0.2-0.7-0.6-0.7-1
	c0-2.4-0.1-4.9,0-7.3c0-1.4,0.4-2.7,1.3-3.8c1.7-1,3.2-2.2,4.9-3.2c0.1,0,0.1-0.1,0.2-0.1h0.1c0.2,0,0.4-0.1,0.5-0.2
	c0.8-0.5,1.7-1,2.5-1.5c0.2-0.1,0.4-0.2,0.6-0.3c0.3,0.2,0.2,0.5,0.1,0.8c-0.3,1.6-0.4,3.3-0.4,5c0,2.7,0.3,5.3,0.7,7.9
	c0.1,0.5,0.2,1.1,0.3,1.6c0.8,4.4,1.9,8.8,3.2,13.1c0.5,1.7,1.1,3.3,1.5,5c2,6,4.2,11.9,6.7,17.8c2.4-6.3,4.5-12.6,6.4-18.9
	c1.6-5.6,3.1-11.3,4.2-17c0-0.1,0-0.3,0-0.4c0.6-3.1,1.1-6.3,1.3-9.5c0.1-1.6,0.1-3.1,0-4.7c0-0.2-0.1-0.5,0.1-0.7
	c0.4,0.1,0.7,0.2,1,0.4c0.2,0.1,0.4,0.2,0.7,0.3c0.2-0.1,0.4,0.1,0.6,0.2c2.1,1.2,4.2,2.5,6.2,3.8c0.8,1,1.1,2.3,1,3.6
	c0,1.7,0,3.5,0,5.2c0,0.8-0.2,1-1,1.1c-1.3,0-2.5,0.3-3.5,1c-0.7,0.5-1.3,1.2-1.5,2c-0.4,1.1-0.6,2.2-0.9,3.2c-0.1,0.3-0.1,0.7,0,1
	c0,0.4,0,0.9-0.1,1.3c-0.5,2.6-1,5.3-1.3,7.9c-0.2,0.9-0.1,1.8,0.1,2.6C74.4,88.2,74.4,88.4,74.3,88.6z"/>
<path class="st4" d="M33.8,41.3c3.5-2.4,7.1-4.6,10.8-6.6c1.5-0.8,3-1.7,4.6-2.4c0.6-0.3,1.2-0.5,1.8-0.6c2.8-0.5,5.6,1.2,6.3,4
	c0.6,1.9,0.1,3.9-1.3,5.3c-0.9,0.9-1.8,1.7-2.7,2.5c-2.4,2-4.9,4-7.5,5.9l-0.4,0.3l-2.9,2.1c-0.2,0.1-0.3,0.2-0.5,0.3
	c-0.1,0.1-0.3,0.1-0.4-0.1c0,0,0-0.1,0-0.1c-0.1-0.1-0.1-0.2-0.1-0.4c-0.1-0.3-0.1-0.7-0.1-1c0-0.5,0-1,0-1.5c0-0.8-0.3-1-1.1-1
	c-0.2,0-0.3,0-0.5,0c-0.6,0.1-1.1,0.1-1.7,0.1c-0.1,0-0.2,0-0.3,0c-0.6,0-1.2-0.5-1.2-1.1c0-0.1,0-0.2,0-0.4
	c0.1-0.5,0.2-0.9,0.3-1.3c0.1-0.3,0.2-0.7,0.2-1c0.1-0.3-0.1-0.6-0.4-0.7c-0.3-0.1-0.5-0.2-0.8-0.3c-0.5-0.1-1.1-0.2-1.6-0.4
	c-0.2,0-0.4-0.1-0.6-0.2c-0.6-0.3-0.7-0.7-0.2-1.2C33.6,41.5,33.7,41.4,33.8,41.3z"/>
<path class="st4" d="M76.2,49.7c-1.3-1-2.6-2-3.9-3c-1.8-1.4-3.6-2.8-5.3-4.4c-0.4-0.4-0.9-0.8-1.3-1.2c-1.1-1.1-1.7-2.7-1.6-4.2
	c0.2-3.1,2.8-5.4,5.9-5.3c0.7,0,1.3,0.2,1.9,0.5c1,0.4,2.1,1,3.1,1.5c4,2.1,7.9,4.4,11.7,6.9l1.2,0.8c0.1,0.2,0.4,0.3,0.5,0.5
	c0.2,0.2,0.1,0.6-0.1,0.7c0,0,0,0,0,0c-0.2,0.1-0.4,0.2-0.7,0.3c-0.4,0.1-0.8,0.2-1.3,0.3c-0.4,0.1-0.8,0.2-1.2,0.4
	c-0.4,0.1-0.6,0.5-0.5,0.9c0,0,0,0,0,0.1c0,0.3,0.1,0.5,0.2,0.8c0.1,0.4,0.2,0.8,0.3,1.2c0.2,1.1-0.3,1.7-1.4,1.7
	c-0.6,0-1.2,0-1.8-0.1c-0.3-0.1-0.7-0.1-1,0c-0.3,0-0.5,0.2-0.6,0.5c0,0.3-0.1,0.7-0.1,1c0,0.5,0,1,0,1.5c0,0.3,0,0.5-0.1,0.8
	c0,0.2-0.2,0.3-0.4,0.3c-0.1,0-0.1,0-0.1-0.1l-0.4-0.2L76.2,49.7z"/>
<path class="st5" d="M49.5,69.6c-0.2-0.7-0.3-1.5-0.4-2.2c-0.1-0.5-0.1-1-0.2-1.5s-0.1-0.9-0.1-1.4c-0.1-0.8-0.2-1.6-0.2-2.4
	s-0.1-1.6-0.1-2.4c0-1.6,0.1-3.1,0.4-4.7c0-0.3,0.2-0.5,0.1-0.8c0.1-0.1,0.2-0.2,0.3-0.3c0.3,0.3,0.7,0.5,1,0.8
	c2,1.7,4.2,3.1,6.6,4.2c0.1,0,0.1,0.1,0.1,0.1c1.2,0.7,2.2,1.5,3.4,2.2c0.6,0.3,0.7,0.6,0.4,1.1c-1.1,0.7-2.3,1.3-3.5,1.9
	c-0.3,0.2-0.5,0.3-0.8,0.5c-1.8,1-3.6,2.2-5.1,3.5c-0.5,0.4-1,0.8-1.4,1.2C49.8,69.7,49.7,69.9,49.5,69.6z"/>
<path class="st5" d="M73.1,54.2c0.2,0.8,0.1,1.7,0.2,2.5c0,0.1,0,0.2,0,0.3c-0.1,0.7-0.1,1.3-0.1,2c0,0.9-0.1,1.9-0.2,2.8
	c0,0.5-0.1,1-0.1,1.4c-0.2,1.9-0.5,3.7-0.8,5.5c0,0.2-0.1,0.3-0.1,0.4c-0.3,0.4-0.5,0-0.7-0.1c-1.5-1.4-3.1-2.6-4.9-3.7
	c-0.4-0.2-0.8-0.4-1.2-0.6c-0.8-0.6-1.6-1.1-2.5-1.5c-0.6-0.3-1.2-0.6-1.7-1c-0.3-0.6,0-0.9,0.5-1.2c1.4-0.8,2.8-1.7,4.2-2.5
	c1-0.6,2.1-1.1,3.1-1.8C70,56,71.1,55,72.2,54c0.2-0.2,0.4-0.3,0.6-0.4L73.1,54.2z"/>
<path class="st6" d="M75.2,55.2c-0.2-0.1-0.3-0.2-0.5-0.3c0,0,0-0.1,0-0.1c0.1-0.4,0.2-0.5,0.6-0.4c1,0.2,2,0.5,2.9,0.9
	c0.8,0.4,1.6,0.8,2.3,1.4c1.5,1.2,2.4,2.9,2.6,4.8c0,0.4,0.1,0.8,0.1,1.2v5.4c0,0.5,0,0.5,0.5,0.5c0.8,0,1.6,0.2,2.3,0.4
	c1,0.2,1.9,0.8,2.5,1.5c0.3,0.4,0.6,0.8,0.8,1.3c0.4,1.2,0.7,2.4,0.9,3.6c0.1,0.3,0,0.6-0.2,0.9c-0.2,0.2-0.4,0.4-0.6,0.2
	c-0.4-0.1-0.6-0.4-0.7-0.8c-0.2-0.9-0.4-1.9-0.7-2.8c-0.1-0.4-0.2-0.8-0.4-1.1c-0.4-0.5-0.9-1-1.5-1.2c-0.4-0.2-0.9-0.3-1.4-0.3
	c-0.8-0.1-1.7-0.1-2.5-0.1c-0.2,0.1-0.4,0.2-0.6,0.2c-0.6,0-1.1,0.1-1.7,0.3c-1,0.2-1.9,1-2.2,2.1c-0.1,0.3-0.1,0.7-0.4,1
	c-0.2,0.2-0.1,0.4-0.2,0.5c-0.2,0.6-0.3,1.1-0.4,1.7c0,0.4-0.2,0.5-0.5,0.7c-0.3,0.1-0.6-0.1-0.8-0.4c-0.1-0.2-0.2-0.5-0.1-0.8
	c0.3-1.1,0.5-2.3,0.9-3.4c0.4-1.2,1.2-2.1,2.3-2.6c0.8-0.4,1.7-0.6,2.6-0.7c0.3,0,0.7,0,1-0.1c0.1,0,0.2-0.1,0.2-0.2c0,0,0,0,0,0
	c0-0.2,0-0.3,0-0.5v-5.4c0-0.9-0.1-1.8-0.5-2.7c-0.1-0.3-0.3-0.6-0.5-0.9c-0.6-0.6-1.2-1.2-1.9-1.8c-0.9-0.7-2-1.2-3.1-1.5
	C76,55.5,75.6,55.3,75.2,55.2z"/>
<path class="st7" d="M40.3,59.5c-0.4,0.5-0.7,1.1-0.9,1.7C39.1,62,39,62.8,39,63.7c0,1.5,0,2.9,0,4.4c0,0.8,0,1.6,0,2.4
	c0,0.2,0,0.4,0,0.6s0.1,0.2,0.2,0.2c0.3,0,0.5,0.1,0.7,0.3c0.7,0.4,1.1,1,1.3,1.7c0,0.2,0.1,0.3,0.1,0.5c0,0.3-0.1,0.7-0.1,1
	c-0.4,1.5-2,2.4-3.5,2c-1-0.3-1.8-1.1-2-2.2c-0.2-1.3,0.5-2.6,1.7-3.1h0.1c0.2-0.1,0.4,0,0.5-0.2s0.1-0.4,0.1-0.6v-6
	c0-1,0.1-2,0.3-3c0.4-2,1.7-3.8,3.5-4.8c0.9-0.5,1.7-0.9,2.7-1.2c0.2-0.1,0.4-0.2,0.6,0s0.1,0.4,0,0.6l0,0c-0.1,0.1-0.2,0.1-0.3,0.2
	c-0.4,0.2-0.8,0.4-1.3,0.6C42.4,57.6,41.3,58.5,40.3,59.5z"/>
<path class="st3" d="M76.2,76.4c0.2-0.1,0.4-0.3,0.5-0.5c0.1,0.1,0.2,0.2,0.2,0.3c0.4,0.9,0.9,1.8,1.3,2.7c0.2,0.3,0.2,0.6,0,0.9
	c-0.8,1.7-1.5,3.5-2.3,5.2c-0.4,0.8-0.8,1.7-1.2,2.5c-0.5-0.2-0.4-0.7-0.4-1.1c0.2-2,0.5-3.9,0.8-5.9c0.2-1.1,0.4-2.2,0.6-3.3
	C75.9,76.9,76,76.6,76.2,76.4z"/>
<path class="st8" d="M77.3,73.7c0.1-0.6,0.2-1.1,0.5-1.7c0.3-0.7,1-1.3,1.7-1.5c0.6-0.2,1.2-0.4,1.8-0.4c0.3,0,0.6,0,0.8,0
	c-0.1,0.5-0.1,1-0.2,1.6c0,0.3-0.1,0.7-0.1,1c0,0.2,0,0.3,0,0.5c0,0.2-0.2,0.3-0.3,0.3c-0.2,0-0.5,0.1-0.7,0.1
	C79.7,73.6,78.5,73.7,77.3,73.7z"/>
<path class="st9" d="M76.2,76.4c-0.2,1.2-0.5,2.3-0.7,3.5c-0.1,0.9-0.4,1.7-0.5,2.6c-0.1,0.8-0.3,1.5-0.3,2.3
	c-0.1,0.6-0.2,1.2-0.2,1.8c-0.1,0.3,0,0.7,0.2,1c0,0.4,0.2,0.7,0.5,1c0.3,0.3,0.5,0.6,0.9,0.8c0.8,0.5,1.7,0.9,2.6,1.2
	c0.1,0,0.2,0,0.3,0c0.1,0.2,0.1,0.5-0.1,0.6c0,0,0,0-0.1,0c-0.1,0.1-0.3,0.1-0.4,0c-1.1-0.3-2.2-0.8-3.1-1.5
	c-0.3-0.2-0.6-0.5-0.8-0.8c-0.1-0.1-0.1-0.2-0.3-0.3c0-0.1,0-0.1,0-0.2c-0.3-0.8-0.5-1.7-0.3-2.6c0-0.5,0.1-1,0.2-1.5l0.3-2.2
	c0-0.3,0.1-0.6,0.1-0.9c0.3-1.5,0.5-3,0.9-4.5c0-0.2,0-0.4,0-0.7C75.7,76.3,76,76.4,76.2,76.4z"/>
<path class="st10" d="M89.4,76.4c0.2,0,0.4-0.1,0.6-0.2c0.2,0.8,0.3,1.5,0.4,2.3c0.2,0.9,0.3,1.9,0.5,2.8c0.1,0.6,0.2,1.1,0.3,1.7
	s0.2,1.2,0.3,1.9c0.1,0.7,0.1,1.4,0.1,2.2c0,0.8-0.3,1.5-0.9,2.1C89.9,90,89,90.6,87.8,91c-0.2,0.1-0.5,0.2-0.7,0.2
	c-0.1,0-0.2,0.1-0.4,0c-0.1-0.1-0.1-0.2-0.2-0.3h-0.1v-0.1c0-0.2,0.2-0.3,0.4-0.4l1.1-0.4c0.8-0.3,1.5-0.7,2-1.3
	c0.7-0.7,1-1.7,0.8-2.7c0-0.2-0.1-0.4-0.1-0.6c0-0.5-0.1-1-0.2-1.5c-0.1-0.7-0.2-1.4-0.3-2.1S90.1,80.6,90,80c-0.2-1-0.4-2-0.6-2.9
	C89.4,76.8,89.4,76.6,89.4,76.4z"/>
<path class="st7" d="M78.8,91.2l0.2-0.7c0.2-0.3,0.5-0.4,0.8-0.6c0.8-0.2,1.5,0.3,1.7,1c0.2,0.7-0.2,1.5-1,1.7s-1.5-0.2-1.7-1
	c0-0.1,0-0.1,0-0.2C78.9,91.4,78.9,91.3,78.8,91.2z"/>
<path class="st7" d="M86.6,90.9c0,0,0,0.1,0,0.1c0,0.1,0,0.3,0,0.4c0,0.7-0.5,1.3-1.2,1.3c-0.8,0.1-1.5-0.4-1.6-1.1
	c-0.1-0.7,0.3-1.3,0.9-1.5c0.5-0.2,1.2-0.1,1.5,0.4C86.4,90.6,86.5,90.7,86.6,90.9z"/>
<path class="st11" d="M64.6,105.8l0.1-0.3C64.8,105.7,64.8,105.7,64.6,105.8z"/>
<path class="st4" d="M60.8,50.3c0.7,0,1.4,0.2,2.1,0.5c0.4,0.2,0.7,0.5,1,0.8c0.8,0.9,0.8,2.3,0,3.2c-0.6,0.7-1.4,1.1-2.2,1.3
	c-1.1,0.2-2.2,0-3.1-0.6c-0.4-0.2-0.7-0.5-0.9-0.9c-0.6-0.8-0.6-2,0-2.8c0.3-0.5,0.8-0.9,1.3-1.1C59.6,50.5,60.2,50.3,60.8,50.3z"/>
<path class="st12" d="M65.6,58.6c-0.2,0.3-0.5,0.5-0.8,0.7c-1,0.7-2.1,1.4-3.2,2l-0.3,0.2c-0.3,0.2-0.5,0.5-0.3,0.8
	c-0.1,0.1-0.2,0.1-0.3,0.1c0,0,0,0-0.1-0.1c0.2-0.4,0.1-0.6-0.2-0.8c-0.2-0.1-0.4-0.3-0.7-0.4c-0.9-0.5-1.8-1.1-2.6-1.8
	C57.1,59.2,57,59.1,57,59c0.7,0.2,1.3,0.4,1.9,0.6c1.5,0.4,3,0.3,4.4-0.1c0.7-0.2,1.4-0.4,2-0.7C65.4,58.6,65.5,58.6,65.6,58.6z"/>
<path class="st13" d="M60.6,62.2H61c0.1,0,0.1,0,0.2,0.1l3.7,2c0.2,0.1,0.3,0.2,0.3,0.4c0.1,0.1,0.1,0.2,0.1,0.2
	c-0.3,1.4-0.8,2.7-1.5,3.9c-0.3,0.4-0.3,0.9-0.1,1.3c1.1,2.6,2.1,5.2,3,7.8c0.5,1.5,0.7,3.1,0.8,4.8c0.1,1.3,0.1,2.6,0,3.8
	c-0.1,0.3-0.1,0.6-0.2,0.8c-1.8,6-3.8,11.9-6.1,17.8c-0.1,0.1-0.1,0.3-0.2,0.4s0,0.1-0.1,0.1c-0.1,0-0.1-0.1-0.1-0.1
	c0-0.1-0.1-0.1-0.1-0.2c-2.3-5.8-4.6-11.6-6.5-17.5c0-0.1-0.1-0.2-0.1-0.3c-0.5-4.4,0.1-8.8,1.9-12.8c0.7-1.6,1.3-3.2,1.9-4.7
	c0.2-0.4,0.1-0.8-0.1-1.2c-0.7-1.3-1.2-2.6-1.5-4c0-0.1,0-0.2,0-0.2c0-0.2,0.2-0.3,0.3-0.4l2.5-1.3C59.7,62.7,60.2,62.5,60.6,62.2z"
	/>
<path class="st12" d="M56.4,64.8l0.7,1.9l0.6,1.7c0.1,0.3,0.3,0.6,0.6,0.8c0.2,0.1,0.2,0.3,0.1,0.5c0,0,0,0,0,0l-0.8,1.9
	c-0.9,2-1.7,4.1-2.4,6.2c-0.3,0.8-0.5,1.6-0.6,2.4c-0.1,0.6-0.2,1.1-0.2,1.7c-0.1,1.9-0.2,3.9-0.2,5.8c0-0.1-0.1-0.1-0.1-0.2
	c0-0.3-0.1-0.6-0.2-0.8c-0.8-2.3-1.4-4.6-2.1-6.9c-0.4-1.6-0.8-3.2-1.2-4.8s-0.7-3.1-1-4.7c-0.1-0.2-0.1-0.5-0.1-0.7
	c0.1,0,0.2,0.1,0.2,0c1-1,2-1.9,3.2-2.8c1-0.7,2-1.3,3-2C56,64.7,56.3,64.6,56.4,64.8z"/>
<path class="st12" d="M67.6,86.7c-0.1-0.1-0.1-0.2-0.1-0.4c0-0.3,0-0.5,0-0.8c0-1.1-0.1-2.3-0.2-3.4c-0.1-1.4-0.3-2.7-0.7-4
	c-0.7-2-1.4-4-2.2-6c-0.3-0.8-0.7-1.7-1-2.5c-0.1-0.1-0.1-0.3,0.1-0.4c0,0,0,0,0,0c0.3-0.2,0.5-0.5,0.6-0.8c0.4-0.8,0.6-1.7,0.9-2.5
	l0.4-1.1c0.1,0,0.2,0,0.3,0c0.1,0.1,0.3,0.1,0.4,0.2c1.3,0.8,2.6,1.7,3.9,2.7c0.6,0.5,1.2,1,1.7,1.5c0.1,0.1,0.3,0.2,0.4,0.1
	c-0.1,0.6-0.2,1.2-0.3,1.7c-0.6,2.8-1.2,5.6-1.9,8.4c-0.5,1.9-1,3.7-1.5,5.6c-0.1,0.5-0.3,1-0.4,1.4C67.8,86.5,67.7,86.6,67.6,86.7z
	"/>
<path class="st14" d="M45.2,56.4H45c0.1-0.1,0.2-0.1,0.3-0.1C45.3,56.3,45.2,56.3,45.2,56.4z"/>
<path class="st3" d="M52,40.5c-1.9,0-3.4-1.5-3.4-3.4c0-1.9,1.5-3.4,3.4-3.4c1.9,0,3.4,1.5,3.4,3.4c0,0,0,0,0,0
	C55.4,39,53.9,40.5,52,40.5C52.1,40.5,52.1,40.5,52,40.5z"/>
<path class="st3" d="M69.7,40.5c-1.9,0.1-3.4-1.3-3.5-3.2c-0.1-1.9,1.3-3.4,3.2-3.5c0.1,0,0.2,0,0.4,0c1.9-0.1,3.4,1.3,3.5,3.2
	c0.1,1.9-1.3,3.4-3.2,3.5C69.9,40.5,69.8,40.5,69.7,40.5z"/>
<path class="st8" d="M38.5,75.8c-1,0-1.7-0.8-1.7-1.7s0.8-1.7,1.7-1.7c1,0,1.7,0.8,1.7,1.7c0,0,0,0,0,0C40.2,75,39.5,75.8,38.5,75.8
	z"/>
<path class="st15" d="M52.1,35.5c0.9,0,1.7,0.8,1.7,1.7s-0.8,1.7-1.7,1.7c-0.9,0-1.7-0.8-1.7-1.7C50.4,36.3,51.1,35.5,52.1,35.5
	C52,35.5,52,35.5,52.1,35.5z"/>
<path class="st15" d="M68,37.2c0-0.9,0.8-1.7,1.7-1.7c0.9,0,1.7,0.8,1.7,1.7c0,0.9-0.8,1.7-1.7,1.7C68.8,38.9,68,38.1,68,37.2
	C68,37.2,68,37.2,68,37.2z"/>
</svg>
