<svg xmlns="http://www.w3.org/2000/svg" viewBox="0 0 595.03 120.89"><defs><style>.a{fill:#87cce7;}.b{font-size:46px;fill:#231f20;font-family:CenturyGothic-Bold, Century Gothic;font-weight:700;letter-spacing:-0.02em;}.c{letter-spacing:-0.02em;}.d{letter-spacing:-0.04em;}.e{letter-spacing:0em;}.f{letter-spacing:0.01em;}.g{letter-spacing:-0.01em;}.h{letter-spacing:-0.01em;}.i{letter-spacing:-0.02em;}.j{letter-spacing:-0.02em;}.k{letter-spacing:-0.02em;}.l{letter-spacing:-0.02em;}.m{letter-spacing:-0.02em;}.n{letter-spacing:-0.02em;}.o{letter-spacing:0em;}.p{letter-spacing:-0.01em;}.q{letter-spacing:-0.01em;}.r{fill:#fff;}.s{fill:#362f2d;}.t{fill:#72c2e4;}.u{fill:#221a15;}.v{fill:#231b16;}.w{fill:#fefefe;}.x{fill:#d2d4d6;}.y{fill:#d1d4d6;}.z{fill:#778eb3;}.aa{fill:#87cce8;}.ab{fill:#236bac;}.ac{fill:#acadb1;}.ad{fill:#37302e;}</style></defs><circle class="a" cx="60.45" cy="60.45" r="60.45"/><text class="b" transform="translate(143.3 79.9)">L<tspan class="c" x="19.33" y="0">é</tspan><tspan class="d" x="47.85" y="0">k</tspan><tspan class="e" x="72.49" y="0">a</tspan><tspan class="f" x="103.08" y="0">ř</tspan><tspan class="g" x="118.02" y="0">i </tspan><tspan class="h" x="141" y="0">j</tspan><tspan class="i" x="152.32" y="0">s</tspan><tspan class="j" x="171.48" y="0">o</tspan><tspan class="g" x="199.8" y="0">u </tspan><tspan class="k" x="239.36" y="0">j</tspan><tspan class="l" x="250.5" y="0">e</tspan><tspan class="m" x="279.04" y="0">n</tspan><tspan class="n" x="305.84" y="0">o</tspan><tspan class="g" x="334.45" y="0">m </tspan><tspan class="o" x="389.64" y="0">l</tspan><tspan class="p" x="400.68" y="0">i</tspan><tspan class="q" x="411.11" y="0">d</tspan><tspan class="g" x="441.17" y="0">i</tspan></text><path class="r" d="M49.24,53.88a1.61,1.61,0,0,0-.38-.44c-.72-.72-1.45-1.44-2.16-2.18-.36-.37-.69-.77-1-1.17a3.64,3.64,0,0,1-.23-.39c0-.31.26-.44.47-.59,2.45-1.86,4.89-3.74,7.24-5.73.92-.78,1.81-1.58,2.65-2.44a5.43,5.43,0,0,0,.72-6.65,5.36,5.36,0,0,0-6.24-2.23,22.27,22.27,0,0,0-3.5,1.63c-3.78,2-7.45,4.21-11.06,6.51-.41.26-.8.54-1.19.82-.23.16-.45.37-.77.28a.31.31,0,0,1-.12-.35A54.62,54.62,0,0,1,35,34.63a37.15,37.15,0,0,1,1.71-4.81,27.61,27.61,0,0,1,2.58-4.63,8.9,8.9,0,0,0,.83-1.4,3.16,3.16,0,0,0,.11-2.12c-.09-.36-.22-.7-.34-1.05a37.76,37.76,0,0,1-1.49-5.83c-.13-.7-.2-1.42-.28-2.14A4.23,4.23,0,0,1,38.27,11,2.15,2.15,0,0,1,40,9.41a5.56,5.56,0,0,1,1.82,0,13.77,13.77,0,0,1,3.35.87,18.36,18.36,0,0,1,3,1.52,25,25,0,0,1,3.57,2.65,5,5,0,0,0,1.27.8,3.64,3.64,0,0,0,2.06.18c1.15-.16,2.29-.3,3.45-.38A27.46,27.46,0,0,1,61.87,15c.91,0,1.82.08,2.74.19.73.08,1.46.19,2.2.29a3.67,3.67,0,0,0,3-1,23.69,23.69,0,0,1,5.7-3.79,14.22,14.22,0,0,1,4.31-1.3A11.52,11.52,0,0,1,81,9.3a3,3,0,0,1,1,.21,2.3,2.3,0,0,1,1.56,2.21,10.88,10.88,0,0,1-.09,1.89,34.14,34.14,0,0,1-.64,3.47,35.38,35.38,0,0,1-1,3.65c-.09.26-.17.53-.27.8a3.19,3.19,0,0,0,.27,2.66c.15.28.34.56.52.83a28,28,0,0,1,2.11,3.54,34.84,34.84,0,0,1,2.43,6.55c.27,1,.51,2,.72,3.06.18.85.31,1.71.45,2.57,0,.19.09.4-.11.55-.4.09-.64-.21-.92-.4a129.71,129.71,0,0,0-14.2-8.27A6.26,6.26,0,0,0,68.44,32a5.38,5.38,0,0,0-3.13,8.24,20,20,0,0,0,3.63,3.49c2.18,1.85,4.45,3.59,6.73,5.32.23.18.53.32.57.68a.48.48,0,0,1-.11.3l-.89,1c-.71.84-1.48,1.6-2.26,2.37-.06.06-.1.13-.16.2-.09.35-.39.51-.63.73a27.28,27.28,0,0,1-6.62,4.48A11.18,11.18,0,0,1,60.65,60,11,11,0,0,1,57,59.16a27.93,27.93,0,0,1-7.39-4.7A1.17,1.17,0,0,1,49.24,53.88Z"/><path class="r" d="M74.3,88.63l-.6,1.16q-2.37,4.74-5,9.32c-1.05,1.81-2.15,3.59-3.25,5.37-.22.35-.46.69-.69,1,.09.16-.06.2-.13.27-.82,1.21-1.63,2.43-2.47,3.62s-1.62,2.28-2.45,3.4a9.74,9.74,0,0,1-1.41,1.46.54.54,0,0,1-.41.17c-.1,0-.17-.07-.15-.17a1.74,1.74,0,0,1,.13-.36c1-2.37,2-4.74,3-7.15a.59.59,0,0,0-.15-.69c-.87-1-1.74-2-2.58-3-1.38-1.66-2.73-3.35-4-5.07s-2.6-3.57-3.81-5.41c-1.31-2-2.55-4-3.73-6.08s-2.2-4.07-3.2-6.16l-.11-.24a.79.79,0,0,1,0-.81l1.34-2.47,1.27-2.37a1.47,1.47,0,0,0,.08-.25,1.68,1.68,0,0,0-.71-.17c-1.12,0-2.22-.14-3.33-.26l-.46,0A1,1,0,0,1,41,73.2a2.72,2.72,0,0,0-1.55-1.6,1,1,0,0,1-.66-1c0-2.43-.06-4.86,0-7.28a6.07,6.07,0,0,1,1.3-3.84c1.67-1,3.23-2.2,4.92-3.19a.75.75,0,0,1,.18-.07h.09c.22,0,.36-.12.53-.22.84-.49,1.67-1,2.52-1.47a5.31,5.31,0,0,1,.64-.3c.33.21.16.51.11.76a23.51,23.51,0,0,0-.39,4.95,50.27,50.27,0,0,0,.71,7.93c.1.54.19,1.08.26,1.62.83,4.42,1.92,8.79,3.17,13.11.49,1.68,1.06,3.33,1.53,5,2,6,4.25,11.88,6.68,17.85,2.42-6.28,4.51-12.55,6.41-18.88,1.62-5.62,3.11-11.27,4.22-17a2.3,2.3,0,0,0,0-.45A79.08,79.08,0,0,0,73,59.66,28.25,28.25,0,0,0,73,55c0-.25-.09-.52.13-.74a2.66,2.66,0,0,1,1,.41,1.25,1.25,0,0,0,.65.26c.24-.07.42.08.61.19,2.1,1.23,4.17,2.52,6.21,3.84a5.29,5.29,0,0,1,1,3.64c0,1.75,0,3.49,0,5.24,0,.84-.15,1-1,1.08a6.61,6.61,0,0,0-3.54,1,3.82,3.82,0,0,0-1.52,2c-.37,1.06-.6,2.15-.86,3.23a2.8,2.8,0,0,0,0,1,4.29,4.29,0,0,1-.12,1.29c-.54,2.63-1,5.28-1.34,7.94A5.81,5.81,0,0,0,74.32,88,.62.62,0,0,1,74.3,88.63Z"/><path class="s" d="M33.76,41.3c3.5-2.39,7.13-4.56,10.82-6.63,1.51-.84,3-1.66,4.59-2.37A8.06,8.06,0,0,1,51,31.68a5.52,5.52,0,0,1,6.32,4A5.37,5.37,0,0,1,56.05,41a28.51,28.51,0,0,1-2.74,2.53c-2.42,2-4.92,4-7.46,5.89l-.41.32-2.87,2.06c-.16.11-.32.22-.5.32a.32.32,0,0,1-.48-.17,1.46,1.46,0,0,1-.12-.37,5.16,5.16,0,0,1-.09-1c0-.5,0-1,0-1.5-.05-.8-.26-1-1.06-1a4.53,4.53,0,0,0-.52,0,13.73,13.73,0,0,1-1.7.07,1.83,1.83,0,0,1-.33,0,1.16,1.16,0,0,1-1.17-1.46,9,9,0,0,1,.28-1.35,4.4,4.4,0,0,0,.21-1,.66.66,0,0,0-.43-.73,5.79,5.79,0,0,0-.8-.27c-.53-.14-1.06-.25-1.59-.38a5.18,5.18,0,0,1-.56-.17c-.63-.27-.7-.69-.21-1.15C33.57,41.47,33.71,41.44,33.76,41.3Z"/><path class="s" d="M76.24,49.68c-1.3-1-2.6-2-3.89-3-1.81-1.41-3.6-2.84-5.3-4.38-.44-.4-.87-.8-1.28-1.23a5.45,5.45,0,0,1-1.58-4.22A5.59,5.59,0,0,1,72,32.05c1,.44,2.06,1,3.06,1.49q6,3.18,11.65,6.91l1.24.84c.14.19.39.26.53.48a.53.53,0,0,1-.11.75,1.59,1.59,0,0,1-.65.29c-.42.12-.85.21-1.28.3a6.21,6.21,0,0,0-1.25.38.71.71,0,0,0-.5.93c0,.26.11.51.17.76.1.41.22.81.29,1.22.19,1.12-.26,1.66-1.39,1.69A11.64,11.64,0,0,1,82,48a3.22,3.22,0,0,0-1,0,.58.58,0,0,0-.56.54c0,.33-.08.65-.09,1,0,.5,0,1,0,1.5a2,2,0,0,1-.14.77.36.36,0,0,1-.57.22l-.38-.25Z"/><path class="t" d="M49.5,69.6c-.19-.74-.28-1.5-.4-2.25-.08-.49-.14-1-.22-1.49s-.1-.91-.14-1.36c-.06-.8-.18-1.6-.18-2.41s-.12-1.57-.08-2.36a35,35,0,0,1,.36-4.68c0-.28.23-.53.14-.82.09-.12.17-.24.26-.35.34.27.68.54,1,.82a25.85,25.85,0,0,0,6.62,4.19A.87.87,0,0,1,57,59c1.15.7,2.19,1.54,3.36,2.21.61.34.66.58.38,1.14-1.11.73-2.32,1.26-3.45,1.95a7.75,7.75,0,0,0-.76.51,25.88,25.88,0,0,0-5.13,3.54A14.08,14.08,0,0,0,50,69.58C49.84,69.73,49.67,69.89,49.5,69.6Z"/><path class="t" d="M73.11,54.23c.19.84.08,1.7.22,2.54a.57.57,0,0,1,0,.26A12.73,12.73,0,0,0,73.24,59c0,.94-.12,1.87-.24,2.8,0,.48-.08.95-.14,1.43-.21,1.86-.52,3.71-.82,5.55,0,.15-.08.3-.12.45-.3.37-.51,0-.69-.13a30.43,30.43,0,0,0-4.9-3.7,6.06,6.06,0,0,0-1.16-.6,13.48,13.48,0,0,0-2.45-1.47c-.58-.33-1.19-.62-1.74-1-.33-.57,0-.9.45-1.16,1.43-.8,2.78-1.73,4.19-2.55,1-.58,2.11-1.13,3.1-1.8A30.61,30.61,0,0,0,72.25,54c.18-.16.38-.29.57-.43Z"/><path class="u" d="M75.19,55.19a1.47,1.47,0,0,1-.48-.29.57.57,0,0,1,0-.13c.08-.39.22-.5.57-.43a13.09,13.09,0,0,1,2.92.94,9.71,9.71,0,0,1,2.28,1.4A7.09,7.09,0,0,1,83.1,61.5a10.19,10.19,0,0,1,.07,1.24v5.37c0,.49,0,.51.51.53A10.19,10.19,0,0,1,86,69a4.94,4.94,0,0,1,2.54,1.52,4,4,0,0,1,.75,1.3c.39,1.18.66,2.39.93,3.6a1.1,1.1,0,0,1-.16.87c-.16.24-.36.37-.64.17a1,1,0,0,1-.65-.82c-.21-.93-.44-1.86-.68-2.79a3.33,3.33,0,0,0-.44-1.09,3.19,3.19,0,0,0-1.52-1.19,5.65,5.65,0,0,0-1.39-.34,10.8,10.8,0,0,0-2.54-.07.85.85,0,0,1-.61.2,6.8,6.8,0,0,0-1.66.29,2.92,2.92,0,0,0-2.15,2.06c-.11.35-.13.73-.44,1-.15.15-.12.36-.17.54a12.27,12.27,0,0,0-.36,1.68c0,.38-.24.53-.54.65a.63.63,0,0,1-.77-.36,1,1,0,0,1-.1-.82c.26-1.14.51-2.29.87-3.41a4.27,4.27,0,0,1,2.32-2.6,7.37,7.37,0,0,1,2.58-.65c.32,0,.65,0,1-.06a.24.24,0,0,0,.24-.25c0-.15,0-.3,0-.46V62.56a7,7,0,0,0-.47-2.68,2.44,2.44,0,0,0-.51-.9,20,20,0,0,0-1.87-1.81,10.37,10.37,0,0,0-3.1-1.51C76,55.54,75.59,55.34,75.19,55.19Z"/><path class="v" d="M40.31,59.51a4.07,4.07,0,0,0-.9,1.72A8.12,8.12,0,0,0,39,63.67c0,1.47,0,2.93,0,4.39q0,1.22,0,2.43c0,.19,0,.39,0,.59s.07.19.2.22a1.87,1.87,0,0,1,.72.28,2.73,2.73,0,0,1,1.33,1.71c0,.16.09.33.13.5a6.27,6.27,0,0,1-.12,1,2.83,2.83,0,0,1-5.5-.22,2.83,2.83,0,0,1,1.67-3.1l.12,0c.17-.11.41,0,.54-.21s.07-.42.07-.64v-6a12.56,12.56,0,0,1,.32-3A7.37,7.37,0,0,1,42,56.83a16.58,16.58,0,0,1,2.67-1.24c.2-.08.42-.16.62,0s.08.4,0,.6h0a3.28,3.28,0,0,1-.31.2c-.42.21-.84.44-1.28.62A10.26,10.26,0,0,0,40.31,59.51Z"/><path class="r" d="M76.25,76.41a1.3,1.3,0,0,0,.51-.53c.13.05.18.18.23.3.45.89.89,1.79,1.35,2.68a1,1,0,0,1,0,.93C77.59,81.54,76.84,83.3,76,85c-.4.85-.79,1.69-1.22,2.52-.54-.21-.44-.69-.41-1.1.15-2,.48-3.94.82-5.89.19-1.1.4-2.19.63-3.28A1.32,1.32,0,0,1,76.25,76.41Z"/><path class="w" d="M77.29,73.66A5.37,5.37,0,0,1,77.75,72a2.9,2.9,0,0,1,1.71-1.51,6.8,6.8,0,0,1,1.84-.4c.28,0,.56,0,.85,0-.06.52-.08,1-.17,1.56,0,.32-.08.65-.1,1a3.59,3.59,0,0,1,0,.46.35.35,0,0,1-.31.29c-.23,0-.47.1-.7.12A29.77,29.77,0,0,1,77.29,73.66Z"/><path class="x" d="M76.25,76.41c-.23,1.15-.49,2.3-.67,3.46-.14.86-.37,1.7-.47,2.56a20.36,20.36,0,0,0-.31,2.33,17.89,17.89,0,0,0-.22,1.81,1.34,1.34,0,0,0,.22,1,1.64,1.64,0,0,0,.47,1,4.29,4.29,0,0,0,.87.77,9.73,9.73,0,0,0,2.58,1.18,1.84,1.84,0,0,0,.33,0,.44.44,0,0,1-.2.65.44.44,0,0,1-.37,0,10,10,0,0,1-3.1-1.51,3.8,3.8,0,0,1-.81-.84c-.08-.11-.14-.22-.27-.27a.87.87,0,0,0,0-.19,5,5,0,0,1-.35-2.56c0-.5.12-1,.19-1.49l.33-2.19c0-.3.09-.6.14-.9.28-1.49.53-3,.87-4.48a3.48,3.48,0,0,0,0-.65A1.06,1.06,0,0,0,76.25,76.41Z"/><path class="y" d="M89.37,76.42a1.6,1.6,0,0,0,.64-.17c.15.77.3,1.54.44,2.31.17.94.34,1.88.5,2.82.09.56.17,1.12.27,1.67s.17,1.25.27,1.87a12.91,12.91,0,0,1,.11,2.15,3.11,3.11,0,0,1-.86,2.07A7.1,7.1,0,0,1,87.85,91a6.2,6.2,0,0,1-.69.23c-.11,0-.25.13-.37,0a1.78,1.78,0,0,1-.17-.27l-.05,0,0-.06c0-.24.21-.32.39-.39l1.1-.41a4.94,4.94,0,0,0,2-1.31,3.07,3.07,0,0,0,.81-2.7c0-.19-.06-.39-.08-.58,0-.5-.1-1-.17-1.49-.11-.7-.23-1.41-.35-2.11S90.07,80.59,90,80c-.18-1-.38-2-.56-2.94A2.89,2.89,0,0,1,89.37,76.42Z"/><path class="v" d="M78.85,91.23l.2-.65a2.24,2.24,0,0,1,.84-.57,1.41,1.41,0,0,1,1.72,1,1.39,1.39,0,1,1-2.72.54C78.87,91.44,78.86,91.34,78.85,91.23Z"/><path class="v" d="M86.59,90.86a.2.2,0,0,0,0,.11c0,.13,0,.26,0,.39a1.33,1.33,0,0,1-1.17,1.35,1.38,1.38,0,0,1-.7-2.66,1.37,1.37,0,0,1,1.54.39A3.93,3.93,0,0,1,86.59,90.86Z"/><path class="z" d="M64.58,105.78l.13-.27C64.84,105.7,64.83,105.73,64.58,105.78Z"/><path class="s" d="M60.84,50.33a3.85,3.85,0,0,1,2.07.52,3.23,3.23,0,0,1,1,.84,2.53,2.53,0,0,1,0,3.2,3.57,3.57,0,0,1-2.23,1.27,4.12,4.12,0,0,1-3.07-.59,3,3,0,0,1-.88-.87,2.47,2.47,0,0,1,0-2.83A3.24,3.24,0,0,1,59,50.74,3.86,3.86,0,0,1,60.84,50.33Z"/><path class="aa" d="M65.62,58.59a3.44,3.44,0,0,1-.84.68,34.11,34.11,0,0,1-3.2,2l-.28.16c-.29.21-.47.45-.26.82a.25.25,0,0,1-.4,0c.15-.42.12-.58-.18-.78a6.68,6.68,0,0,0-.67-.41,20.53,20.53,0,0,1-2.63-1.82A1,1,0,0,1,57,59c.65.18,1.29.4,1.94.57a8.17,8.17,0,0,0,4.44-.14,12.08,12.08,0,0,0,2-.72C65.41,58.64,65.52,58.62,65.62,58.59Z"/><path class="ab" d="M60.64,62.24H61a1,1,0,0,1,.18.06l3.74,2a.42.42,0,0,1,.27.41.33.33,0,0,1,.06.25,13.8,13.8,0,0,1-1.46,3.9,1.2,1.2,0,0,0-.09,1.32,83.07,83.07,0,0,1,3,7.82,18.29,18.29,0,0,1,.78,4.76,21.52,21.52,0,0,1,0,3.85c-.06.27-.11.55-.19.82q-2.7,9-6.06,17.83c-.06.14-.11.28-.17.43s0,.14-.13.1a.3.3,0,0,1-.12-.13,1.34,1.34,0,0,1-.07-.18c-2.31-5.8-4.58-11.6-6.53-17.53,0-.1-.07-.2-.11-.31A24.47,24.47,0,0,1,56,74.84c.66-1.57,1.28-3.16,1.94-4.72a1.14,1.14,0,0,0-.1-1.15,16.3,16.3,0,0,1-1.46-4,.37.37,0,0,1,0-.25c0-.24.18-.33.35-.43L59.25,63C59.71,62.71,60.18,62.48,60.64,62.24Z"/><path class="aa" d="M56.43,64.75l.66,1.91.6,1.66a1.67,1.67,0,0,0,.58.85.33.33,0,0,1,.1.46l-.81,1.93c-.86,2-1.7,4.11-2.38,6.22a15.38,15.38,0,0,0-.62,2.4c-.08.56-.15,1.13-.2,1.69q-.22,2.89-.16,5.81a.76.76,0,0,1-.11-.22,4.48,4.48,0,0,0-.21-.82c-.75-2.3-1.43-4.61-2.06-6.94-.43-1.58-.83-3.16-1.21-4.75s-.67-3.09-1-4.65a1.85,1.85,0,0,1-.13-.7c.08,0,.17.08.24,0a23.3,23.3,0,0,1,3.18-2.77c1-.74,2-1.34,3-2A.41.41,0,0,1,56.43,64.75Z"/><path class="aa" d="M67.58,86.65a.62.62,0,0,1-.09-.38c0-.26,0-.52,0-.78,0-1.14-.09-2.27-.17-3.4a16.25,16.25,0,0,0-.73-4c-.66-2-1.43-4-2.25-6-.35-.83-.69-1.65-1-2.48a.31.31,0,0,1,.11-.45,1.69,1.69,0,0,0,.56-.78c.36-.83.61-1.68.9-2.53l.39-1.11a.38.38,0,0,1,.31,0c.14.07.28.13.41.21a39.59,39.59,0,0,1,3.89,2.69,12.74,12.74,0,0,1,1.68,1.52.29.29,0,0,0,.4.08,10.27,10.27,0,0,1-.3,1.73c-.58,2.81-1.21,5.61-1.94,8.38-.49,1.88-1,3.74-1.54,5.6-.13.49-.28,1-.41,1.45A.51.51,0,0,1,67.58,86.65Z"/><path class="ac" d="M45.19,56.37l-.18,0a.34.34,0,0,1,.28-.13C45.3,56.3,45.25,56.34,45.19,56.37Z"/><path class="r" d="M52.05,40.54a3.37,3.37,0,1,1,3.38-3.35A3.36,3.36,0,0,1,52.05,40.54Z"/><path class="r" d="M69.65,40.54a3.37,3.37,0,1,1,0-6.73,3.37,3.37,0,1,1,0,6.73Z"/><path class="w" d="M38.53,75.76a1.73,1.73,0,1,1,1.71-1.7A1.72,1.72,0,0,1,38.53,75.76Z"/><path class="ad" d="M52.06,35.5a1.69,1.69,0,1,1-1.69,1.7A1.67,1.67,0,0,1,52.06,35.5Z"/><path class="ad" d="M68,37.19a1.69,1.69,0,1,1,1.7,1.69A1.68,1.68,0,0,1,68,37.19Z"/></svg>