<svg xmlns="http://www.w3.org/2000/svg" viewBox="0 0 595.28 595.28"><defs><style>.cls-1{fill:#87cce7;}.cls-2{fill:#fff;}.cls-3{fill:#362f2d;}.cls-4{fill:#72c2e4;}.cls-5{fill:#221a15;}.cls-6{fill:#231b16;}.cls-7{fill:#fefefe;}.cls-8{fill:#d2d4d6;}.cls-9{fill:#d1d4d6;}.cls-10{fill:#778eb3;}.cls-11{fill:#87cce8;}.cls-12{fill:#236bac;}.cls-13{fill:#acadb1;}.cls-14{fill:#37302e;}</style></defs><g id="Layer_2" data-name="Layer 2"><circle class="cls-1" cx="297.64" cy="297.64" r="297.64"/></g><g id="Layer_1" data-name="Layer 1"><path class="cls-2" d="M242.45,265.3a7.35,7.35,0,0,0-1.88-2.16c-3.54-3.57-7.11-7.1-10.6-10.71-1.78-1.85-3.42-3.82-5.07-5.78a11.85,11.85,0,0,1-1.14-1.92c0-1.54,1.29-2.15,2.29-2.91,12.08-9.16,24.09-18.42,35.67-28.22,4.51-3.82,8.91-7.76,13-12a26.73,26.73,0,0,0,3.54-32.74,26.29,26.29,0,0,0-30.7-11c-6.07,2-11.66,5-17.26,8-18.61,9.92-36.69,20.74-54.47,32.09-2,1.27-3.91,2.66-5.84,4-1.11.78-2.19,1.82-3.78,1.39a1.57,1.57,0,0,1-.58-1.72,271.64,271.64,0,0,1,6.56-31.16,183,183,0,0,1,8.43-23.67,135.81,135.81,0,0,1,12.72-22.77,42.19,42.19,0,0,0,4.07-6.94,15.63,15.63,0,0,0,.56-10.4c-.44-1.77-1.08-3.49-1.69-5.21A187.88,187.88,0,0,1,189,72.83c-.63-3.47-1-7-1.37-10.52a20.88,20.88,0,0,1,.81-8c1.24-4.44,4.2-7.06,8.75-8a28,28,0,0,1,9-.08,67.16,67.16,0,0,1,16.49,4.27,89.22,89.22,0,0,1,15,7.52,121.55,121.55,0,0,1,17.59,13,25.28,25.28,0,0,0,6.26,4c3.28,1.51,6.73,1.33,10.14.86,5.64-.77,11.27-1.46,16.95-1.86a139.85,139.85,0,0,1,16.11-.36c4.49.21,9,.44,13.48,1,3.63.42,7.24.94,10.86,1.42a18.08,18.08,0,0,0,14.86-4.7,117.15,117.15,0,0,1,28.09-18.69,70.87,70.87,0,0,1,21.2-6.37,48.73,48.73,0,0,1,5.77-.45,14.87,14.87,0,0,1,5,1c5,1.86,7.3,5.79,7.64,10.91a48.46,48.46,0,0,1-.44,9.31A167.2,167.2,0,0,1,408,84.11a180.15,180.15,0,0,1-5.18,17.94c-.44,1.33-.87,2.66-1.33,4a15.68,15.68,0,0,0,1.31,13.06c.77,1.41,1.67,2.76,2.58,4.09a143.15,143.15,0,0,1,10.38,17.44,173,173,0,0,1,12,32.28q2,7.47,3.55,15c.87,4.19,1.51,8.44,2.18,12.68.14.9.45,1.94-.51,2.68-2,.46-3.18-1-4.55-2a633.11,633.11,0,0,0-69.93-40.71c-6.81-3.36-13.76-5.17-21.49-3.32-17.68,4.23-25.94,25.76-15.42,40.6,4.86,6.85,11.56,11.81,17.85,17.15,10.74,9.12,21.92,17.69,33.14,26.22,1.16.89,2.63,1.58,2.83,3.32a2.6,2.6,0,0,1-.54,1.48c-1.47,1.69-3,3.39-4.41,5.1-3.47,4.1-7.28,7.87-11.1,11.63a8.81,8.81,0,0,0-.79,1c-.43,1.7-1.94,2.53-3.1,3.58a134.55,134.55,0,0,1-32.6,22c-7.71,3.47-15.59,6.11-24.22,5.88-6.23-.17-12.08-1.85-17.83-4-13.51-5.55-25.3-13.82-36.39-23.18A5.34,5.34,0,0,1,242.45,265.3Z"/><path class="cls-2" d="M365.84,436.4c-1,1.91-2,3.82-2.93,5.74q-11.7,23.34-24.86,45.88c-5.2,8.9-10.59,17.68-16,26.44-1.08,1.72-2.25,3.39-3.37,5.09.43.76-.3.94-.66,1.3-4.05,6-8.05,11.95-12.17,17.85q-5.91,8.46-12.06,16.75a50.09,50.09,0,0,1-6.95,7.17,2.58,2.58,0,0,1-2,.85c-.47-.06-.85-.36-.74-.85a10,10,0,0,1,.66-1.8c5-11.66,9.91-23.34,14.5-35.17a2.82,2.82,0,0,0-.72-3.39c-4.28-4.82-8.55-9.65-12.69-14.59q-10.21-12.24-19.82-25c-6.5-8.69-12.8-17.53-18.75-26.61q-9.64-14.7-18.39-29.94c-5.66-9.9-10.82-20.05-15.73-30.33-.19-.39-.35-.79-.55-1.17a3.87,3.87,0,0,1,.07-4c2.22-4.05,4.39-8.13,6.58-12.2q3.14-5.83,6.25-11.66a7,7,0,0,0,.38-1.22,7.47,7.47,0,0,0-3.49-.84c-5.48-.15-10.93-.68-16.38-1.26-.74-.08-1.5-.07-2.25-.11-1.15-.63-1.48-1.81-1.89-2.9a13.19,13.19,0,0,0-7.64-7.88,4.72,4.72,0,0,1-3.24-5c0-11.94-.28-23.89.12-35.82.24-6.8,1.74-13.46,6.37-18.92,8.23-5,15.92-10.81,24.24-15.68a3.38,3.38,0,0,1,.86-.35H223c1.06.1,1.79-.6,2.6-1.08,4.14-2.42,8.25-4.87,12.4-7.27,1-.58,2.12-1,3.18-1.49,1.59,1.05.77,2.52.53,3.77a117.38,117.38,0,0,0-1.91,24.35,246.6,246.6,0,0,0,3.48,39.09c.47,2.64,1,5.29,1.3,8,4.09,21.79,9.42,43.28,15.6,64.57,2.4,8.26,5.23,16.38,7.5,24.67,9.94,29.45,20.95,58.5,32.9,87.9,11.93-30.95,22.22-61.8,31.57-93,8-27.67,15.35-55.49,20.77-83.79a12,12,0,0,0,.29-2.23,398.43,398.43,0,0,0,6.08-46.52,145.89,145.89,0,0,0,.07-23.09c-.11-1.26-.47-2.59.61-3.66a13.1,13.1,0,0,1,4.67,2c1,.56,1.93,1.36,3.2,1.29,1.21-.33,2.08.39,3,.92q15.51,9.12,30.6,18.93c4.3,5.25,5,11.55,4.9,17.94-.18,8.6-.25,17.19,0,25.78.12,4.13-.74,5.16-4.93,5.32-6.23.24-12.15,1.55-17.4,5.09a19,19,0,0,0-7.52,9.78c-1.77,5.2-2.91,10.57-4.19,15.89a12.8,12.8,0,0,0,.14,5.12,20.55,20.55,0,0,1-.62,6.39c-2.63,12.95-4.93,26-6.56,39.09-.53,4.3-.76,8.56.68,12.76C366.31,434.33,366.62,435.41,365.84,436.4Z"/><path class="cls-3" d="M166.24,203.38c17.21-11.79,35.09-22.48,53.29-32.66,7.4-4.13,14.86-8.17,22.59-11.69a40.28,40.28,0,0,1,9.12-3.06,27.25,27.25,0,0,1,31.12,19.95c2.5,9.61.36,18.34-6.36,25.76a138.69,138.69,0,0,1-13.51,12.48c-11.9,10.08-24.23,19.62-36.71,29-.68.52-1.35,1.06-2,1.59l-14.15,10.13a24.1,24.1,0,0,1-2.44,1.57,1.58,1.58,0,0,1-2.39-.81,8.25,8.25,0,0,1-.56-1.83,25.19,25.19,0,0,1-.48-5.13c0-2.47,0-4.94-.13-7.41-.23-3.9-1.26-4.83-5.21-4.9a20.15,20.15,0,0,0-2.57.16,68.82,68.82,0,0,1-8.37.32,14.63,14.63,0,0,1-1.62-.07c-4.33-.46-6.33-2.91-5.79-7.22a44.23,44.23,0,0,1,1.42-6.61,23.1,23.1,0,0,0,1-5,3.28,3.28,0,0,0-2.1-3.6,32.84,32.84,0,0,0-3.95-1.35c-2.6-.68-5.23-1.23-7.83-1.87a18.48,18.48,0,0,1-2.77-.84c-3.1-1.3-3.45-3.4-1-5.63C165.27,204.17,166,204.05,166.24,203.38Z"/><path class="cls-3" d="M375.41,244.61c-6.39-4.92-12.81-9.8-19.17-14.75-8.91-6.94-17.71-14-26.1-21.58-2.15-1.94-4.27-3.94-6.28-6a27,27,0,0,1-7.79-20.82,27.48,27.48,0,0,1,38.38-23.6c5.16,2.15,10.13,4.68,15.06,7.3q29.44,15.7,57.33,34c2.06,1.36,4.09,2.76,6.14,4.14.69,1,1.93,1.31,2.58,2.36a2.6,2.6,0,0,1-.53,3.72,8.28,8.28,0,0,1-3.22,1.44c-2.07.56-4.18,1-6.27,1.47a29.56,29.56,0,0,0-6.17,1.83c-2.32,1.11-2.86,2-2.47,4.6.19,1.27.57,2.51.87,3.77.48,2,1.07,3.95,1.4,6,.92,5.54-1.26,8.2-6.84,8.37a57.49,57.49,0,0,1-8.7-.31,15.9,15.9,0,0,0-4.82.08,2.91,2.91,0,0,0-2.76,2.67c-.19,1.6-.4,3.2-.46,4.81-.11,2.47-.1,4.94-.13,7.42a10.82,10.82,0,0,1-.7,3.78c-.55,1.41-1.49,1.77-2.79,1.06a21.8,21.8,0,0,1-1.88-1.24Z"/><path class="cls-4" d="M243.75,342.7c-.95-3.64-1.37-7.37-2-11.07-.4-2.44-.68-4.89-1.07-7.32-.35-2.23-.52-4.49-.7-6.72-.3-4-.88-7.89-.89-11.88s-.59-7.74-.42-11.58c.35-7.71.4-15.45,1.82-23.09.24-1.34,1.09-2.58.68-4l1.26-1.7c1.66,1.35,3.34,2.68,5,4.06C257.35,277.73,268,284.91,280,290a2.66,2.66,0,0,1,.5.4c5.64,3.44,10.8,7.59,16.56,10.86,3,1.71,3.22,2.84,1.85,5.64-5.44,3.6-11.44,6.2-17,9.59a33.44,33.44,0,0,0-3.71,2.5,126.57,126.57,0,0,0-25.29,17.43,71.33,71.33,0,0,0-6.91,6.22C245.39,343.33,244.55,344.12,243.75,342.7Z"/><path class="cls-4" d="M360,267c.94,4.11.42,8.35,1.1,12.48a3.73,3.73,0,0,1,0,1.29c-.6,3.19-.33,6.42-.47,9.64q-.3,6.9-1.14,13.77c-.28,2.34-.43,4.69-.7,7-1,9.16-2.55,18.25-4.07,27.34-.12.73-.37,1.45-.56,2.18-1.49,1.85-2.51.23-3.41-.61a146.54,146.54,0,0,0-24.12-18.22,32.15,32.15,0,0,0-5.7-3c-3.59-3.12-8-5-12.06-7.23a97.63,97.63,0,0,1-8.59-5c-1.63-2.82-.07-4.45,2.21-5.72,7-3.93,13.69-8.51,20.66-12.56,5.13-2.88,10.38-5.55,15.25-8.88A152.89,152.89,0,0,0,355.78,266c.86-.79,1.86-1.42,2.8-2.13C359,264.9,359.51,266,360,267Z"/><path class="cls-5" d="M370.23,271.74a7.21,7.21,0,0,1-2.38-1.42,3.44,3.44,0,0,1,0-.64c.4-1.92,1.05-2.47,2.8-2.11a67.35,67.35,0,0,1,14.38,4.61,47.69,47.69,0,0,1,11.21,6.91,35.05,35.05,0,0,1,12.91,23.72,54.14,54.14,0,0,1,.35,6.11q0,12.25,0,24.51c0,.64,0,1.29,0,1.93,0,2.43,0,2.51,2.51,2.62a51.14,51.14,0,0,1,11.15,1.56,24.13,24.13,0,0,1,12.5,7.52,19.3,19.3,0,0,1,3.71,6.36c1.95,5.82,3.25,11.8,4.61,17.76a5.6,5.6,0,0,1-.81,4.29c-.81,1.18-1.77,1.79-3.15.84-1.95-.66-2.77-2.13-3.21-4.06-1.05-4.59-2.17-9.18-3.36-13.74a16.66,16.66,0,0,0-2.15-5.35,15.93,15.93,0,0,0-7.48-5.88A29.53,29.53,0,0,0,417,345.6a53.51,53.51,0,0,0-12.52-.31,4,4,0,0,1-3,1,34.46,34.46,0,0,0-8.19,1.42,14.4,14.4,0,0,0-10.59,10.15c-.54,1.7-.64,3.62-2.17,4.89-.71.75-.61,1.76-.83,2.66a61.56,61.56,0,0,0-1.8,8.27c.12,1.88-1.16,2.62-2.63,3.21-1.77.5-2.91-.34-3.78-1.78a4.94,4.94,0,0,1-.53-4c1.31-5.63,2.54-11.27,4.31-16.79a21,21,0,0,1,11.42-12.82,36.19,36.19,0,0,1,12.69-3.21c1.6-.14,3.21-.21,4.82-.3a1.14,1.14,0,0,0,1.2-1.21c0-.75,0-1.51,0-2.26q0-13.18,0-26.38a33.83,33.83,0,0,0-2.33-13.21,12,12,0,0,0-2.51-4.43c-3.16-2.89-5.63-6.45-9.21-8.95a51.29,51.29,0,0,0-15.26-7.41C374.13,273.47,372.22,272.5,370.23,271.74Z"/><path class="cls-6" d="M198.47,293c-2.33,2.38-3.41,5.44-4.41,8.49a39.94,39.94,0,0,0-2.09,12c-.08,7.21-.08,14.41-.11,21.62q0,6,0,11.94c0,1,0,1.93.1,2.89a1.06,1.06,0,0,0,1,1.08,10.69,10.69,0,0,1,3.59,1.39,13.46,13.46,0,0,1,6.54,8.42c.22.83.43,1.66.64,2.49a32.49,32.49,0,0,1-.6,4.79c-1.82,6.44-7.39,10.42-14.31,10.13a13.8,13.8,0,0,1-4.56-26.51,5.36,5.36,0,0,0,.6-.24c.82-.53,2-.18,2.64-1s.35-2.08.35-3.13c0-9.79,0-19.58,0-29.37a62.37,62.37,0,0,1,1.55-14.72,36.32,36.32,0,0,1,17.31-23.46,85.06,85.06,0,0,1,13.14-6.09c1-.38,2-.76,3,.15s.44,2,.13,3h0c-.5.34-1,.67-1.51,1-2.09,1.06-4.17,2.16-6.34,3C208.55,283.47,203.43,288.13,198.47,293Z"/><path class="cls-2" d="M375.44,376.26a6.14,6.14,0,0,0,2.5-2.62c.68.26.9.9,1.18,1.46,2.2,4.4,4.35,8.84,6.61,13.21a4.92,4.92,0,0,1,.12,4.58c-3.79,8.62-7.5,17.27-11.52,25.79-2,4.17-3.88,8.35-6,12.43-2.66-1.06-2.19-3.41-2-5.42.74-9.76,2.35-19.41,4-29q1.43-8.1,3.09-16.15C373.75,378.93,374,377.32,375.44,376.26Z"/><path class="cls-7" d="M380.57,362.71a25.75,25.75,0,0,1,2.26-8,14.42,14.42,0,0,1,8.43-7.48,33.55,33.55,0,0,1,9.06-1.94c1.38-.12,2.78,0,4.16,0-.25,2.55-.39,5.13-.81,7.66a45.45,45.45,0,0,0-.49,4.79,13.86,13.86,0,0,1-.27,2.23,1.69,1.69,0,0,1-1.49,1.47c-1.16.16-2.32.49-3.49.56C392.15,362.33,386.38,363,380.57,362.71Z"/><path class="cls-8" d="M375.44,376.26c-1.14,5.66-2.42,11.29-3.3,17-.65,4.23-1.79,8.39-2.29,12.63-.44,3.82-1.53,7.56-1.53,11.44-1.08,2.88-.31,6-1.11,8.91-.45,1.65.26,3.35,1.11,4.87a8,8,0,0,0,2.29,5.14,22.64,22.64,0,0,0,4.29,3.81,47.92,47.92,0,0,0,12.74,5.79,8.13,8.13,0,0,0,1.58.18,2.14,2.14,0,0,1-.94,3.17,2.17,2.17,0,0,1-1.85.1c-5.43-1.77-10.69-3.87-15.24-7.42a19.25,19.25,0,0,1-4-4.13,3.18,3.18,0,0,0-1.32-1.35,4.16,4.16,0,0,0-.22-.94c-1.95-4-2.05-8.3-1.75-12.61.17-2.45.61-4.87,1-7.31q.78-5.39,1.59-10.78c.22-1.48.45-3,.73-4.43,1.38-7.36,2.61-14.75,4.25-22.05a17.11,17.11,0,0,0,.13-3.21A5.33,5.33,0,0,0,375.44,376.26Z"/><path class="cls-9" d="M440.06,376.31a8.19,8.19,0,0,0,3.15-.84c.72,3.78,1.47,7.56,2.16,11.35.85,4.63,1.65,9.26,2.45,13.9.48,2.74.85,5.5,1.37,8.23.57,3.05.8,6.16,1.31,9.2a62.69,62.69,0,0,1,.52,10.59c0,3.94-1.67,7.24-4.2,10.17-3.84,4.46-8.94,6.92-14.27,9q-1.65.65-3.36,1.14c-.58.16-1.24.63-1.82.16a5,5,0,0,1-.86-1.31l-.23-.23.1-.3c.09-1.19,1-1.57,1.92-1.92,1.8-.68,3.61-1.35,5.41-2a25.14,25.14,0,0,0,9.86-6.45,15.23,15.23,0,0,0,3.95-13.32c-.13-.95-.3-1.89-.39-2.85-.23-2.45-.47-4.89-.83-7.32-.52-3.48-1.14-6.94-1.73-10.41-.53-3.16-1.05-6.32-1.65-9.46-.9-4.83-1.89-9.64-2.79-14.46A18.54,18.54,0,0,1,440.06,376.31Z"/><path class="cls-6" d="M388.28,449.2c.31-1.06.63-2.11.94-3.17,1.27-1.12,2.43-2.34,4.17-2.83a6.93,6.93,0,0,1,8.46,4.91,6.85,6.85,0,1,1-13.42,2.68C388.33,450.27,388.33,449.73,388.28,449.2Z"/><path class="cls-6" d="M426.38,447.4a.68.68,0,0,0,.13.53c0,.64,0,1.28.05,1.92.29,2.74-2.14,6.21-5.76,6.64a6.79,6.79,0,0,1-3.45-13.07,6.67,6.67,0,0,1,7.58,1.89A23.53,23.53,0,0,1,426.38,447.4Z"/><path class="cls-10" d="M318,520.85l.66-1.3C319.28,520.46,319.21,520.59,318,520.85Z"/><path class="cls-3" d="M299.6,247.81a19.65,19.65,0,0,1,10.19,2.55,15.72,15.72,0,0,1,4.88,4.15,12.43,12.43,0,0,1-.11,15.77,17.61,17.61,0,0,1-11,6.23,20.29,20.29,0,0,1-15.13-2.9,14.81,14.81,0,0,1-4.35-4.25,12.19,12.19,0,0,1-.09-14,16.1,16.1,0,0,1,6.54-5.59A19.77,19.77,0,0,1,299.6,247.81Z"/><path class="cls-11" d="M323.13,288.5a18.36,18.36,0,0,1-4.18,3.37,179.17,179.17,0,0,1-15.72,9.78c-.46.26-1,.48-1.39.78-1.44,1-2.29,2.24-1.3,4a1.25,1.25,0,0,1-2,0c.76-2,.59-2.87-.88-3.85-1.07-.72-2.17-1.39-3.3-2a97.25,97.25,0,0,1-12.92-9,5.58,5.58,0,0,1-1-1.27c3.21.85,6.33,2,9.55,2.79a40.65,40.65,0,0,0,21.88-.68,61.7,61.7,0,0,0,9.66-3.53A9.55,9.55,0,0,1,323.13,288.5Z"/><path class="cls-12" d="M298.58,306.46h2a4.46,4.46,0,0,1,.92.27q9.21,5,18.4,10.07a2.12,2.12,0,0,1,1.34,2,1.57,1.57,0,0,1,.28,1.22c-1.91,6.6-3.35,13.42-7.17,19.23a6,6,0,0,0-.48,6.51,400,400,0,0,1,14.88,38.47,90.09,90.09,0,0,1,3.88,23.44c.28,6.33,1,12.63.18,19-.31,1.36-.54,2.74-.94,4.07Q318.5,475.15,302,518.49q-.39,1.05-.81,2.1c-.11.28-.22.69-.62.52a1.61,1.61,0,0,1-.6-.66,5.41,5.41,0,0,1-.38-.89C288.2,491,277,462.44,267.43,433.26c-.17-.51-.36-1-.54-1.51a121,121,0,0,1,8.85-63.26c3.26-7.71,6.28-15.52,9.55-23.23a5.47,5.47,0,0,0-.51-5.63c-3.63-6-5.19-12.89-7.15-19.58a1.66,1.66,0,0,1,.25-1.23c0-1.17.85-1.63,1.72-2.11,4-2.22,8.08-4.47,12.14-6.68C294,308.8,296.3,307.65,298.58,306.46Z"/><path class="cls-11" d="M277.88,318.82c1.08,3.14,2.14,6.29,3.24,9.42,1,2.73,2,5.45,3,8.17a7.94,7.94,0,0,0,2.85,4.18,1.67,1.67,0,0,1,.51,2.28c-1.34,3.16-2.7,6.31-4,9.48-4.23,10.09-8.34,20.23-11.69,30.66a72.77,72.77,0,0,0-3.06,11.82c-.4,2.75-.76,5.52-1,8.29-.76,9.53-1,19.07-.79,28.63a3.87,3.87,0,0,1-.55-1.12,19.14,19.14,0,0,0-1.06-4q-5.5-17-10.14-34.18c-2.1-7.76-4.09-15.53-5.92-23.35-1.78-7.6-3.3-15.26-4.86-22.91-.24-1.14-.81-2.23-.61-3.46.39.14.81.42,1.16,0,4.64-5.22,10.19-9.38,15.67-13.64,4.74-3.68,10-6.62,14.92-10A2,2,0,0,1,277.88,318.82Z"/><path class="cls-11" d="M332.77,426.65a2.9,2.9,0,0,1-.45-1.84c0-1.29-.06-2.58-.12-3.87-.25-5.58-.42-11.17-.8-16.75a81,81,0,0,0-3.62-19.6c-3.24-10-7-19.86-11.08-29.59-1.7-4.06-3.41-8.13-5.16-12.17-.39-.93-.37-1.62.53-2.22a8.28,8.28,0,0,0,2.78-3.87c1.75-4.05,3-8.29,4.43-12.45.63-1.83,1.28-3.65,1.92-5.47a1.83,1.83,0,0,1,1.53-.17,20.72,20.72,0,0,1,2,1,188.55,188.55,0,0,1,19.15,13.26,62.59,62.59,0,0,1,8.28,7.5,1.43,1.43,0,0,0,2,.36c-.06,2.91-.93,5.7-1.5,8.52-2.83,13.84-5.95,27.63-9.54,41.3-2.42,9.21-5,18.38-7.58,27.57-.66,2.37-1.37,4.73-2,7.11A2.34,2.34,0,0,1,332.77,426.65Z"/><path class="cls-13" d="M222.51,277.56l-.87-.1a1.64,1.64,0,0,1,1.37-.62C223.06,277.23,222.82,277.41,222.51,277.56Z"/><path class="cls-2" d="M256.3,199.61c-9.34.15-16.58-7.79-16.56-16.56a16.59,16.59,0,1,1,33.18.06C272.92,191.76,265.75,199.79,256.3,199.61Z"/><path class="cls-2" d="M343,199.61A16.38,16.38,0,0,1,326.43,183,16.58,16.58,0,1,1,343,199.61Z"/><path class="cls-7" d="M189.72,373a8.49,8.49,0,1,1,8.44-8.36A8.46,8.46,0,0,1,189.72,373Z"/><path class="cls-14" d="M256.33,174.82a8.29,8.29,0,1,1-.15,16.58,8.29,8.29,0,0,1,.15-16.58Z"/><path class="cls-14" d="M334.71,183.1a8.34,8.34,0,1,1,8.41,8.34A8.29,8.29,0,0,1,334.71,183.1Z"/></g></svg>